<?xml version="1.0" encoding="UTF-8"?>
<svg id="Layer_1" data-name="Layer 1" xmlns="http://www.w3.org/2000/svg" viewBox="0 0 932.26 130.79">
  <path d="M35.16,8.84L0,102.92h17.44l8.69-25.95h38.66l8.65,25.95h17.34L55.75,8.84h-20.6ZM30.67,63.38l13.32-39.79h3.03l13.26,39.79h-29.6Z"/>
  <path d="M248.54,8.84h14.62v94.08h-14.62V8.84Z"/>
  <path d="M350.85,37.7c-4.87-3.07-10.65-4.61-17.33-4.61s-12.47,1.52-17.39,4.55c-4.92,3.03-8.7,7.22-11.33,12.59-2.63,5.36-3.95,11.55-3.95,18.57s1.34,13.24,4.02,18.65c2.68,5.4,6.52,9.62,11.53,12.65,5.01,3.03,10.93,4.55,17.79,4.55,7.9,0,14.58-2.06,20.03-6.19,5.2-3.94,8.73-9.46,10.65-16.52h-14.86c-3.18,8.12-10.1,10.6-15.82,10.6-9.87,0-18.18-7.35-18.18-16.43v-3.07h49.68c.09-.79.14-1.93.14-3.43,0-7.2-1.28-13.55-3.83-19.04-2.55-5.49-6.26-9.77-11.13-12.85h0ZM351.05,61.49h-35.06v-.48c0-8.91,7.85-16.12,17.52-16.12s17.52,7.22,17.52,16.12v.48h0Z"/>
  <path d="M424.56,8.84v35.17h-1.21c-4.87-8.06-13.07-10.93-20.14-10.93-6.5,0-12.08,1.6-16.74,4.81-4.66,3.21-8.17,7.51-10.54,12.91-2.37,5.4-3.55,11.39-3.55,17.98s1.18,12.6,3.55,18.05c2.37,5.44,5.89,9.77,10.54,12.98,4.66,3.2,10.24,4.81,16.74,4.81s15.09-2.6,20.14-10.93h1.21v9.22h14.62V8.84h-14.62ZM424.82,74.82c0,9.44-8.32,17.09-18.57,17.09s-18.58-7.65-18.58-17.09v-12.59c0-9.44,8.32-17.09,18.58-17.09s18.57,7.65,18.57,17.09v12.59Z"/>
  <path d="M225.41,37.9c-4.66-3.2-10.24-4.81-16.74-4.81s-15.1,2.6-20.14,10.93h-1.21v-9.22h-14.62v94.08h14.62v-35.17h1.21c4.87,8.06,13.07,10.93,20.14,10.93,6.5,0,12.08-1.6,16.74-4.81,4.66-3.21,8.17-7.51,10.54-12.91,2.37-5.4,3.55-11.39,3.55-17.98s-1.18-12.6-3.55-18.05c-2.37-5.44-5.89-9.77-10.54-12.98ZM224.23,74.82c0,9.44-8.32,17.09-18.57,17.09s-18.57-7.65-18.57-17.09v-12.59c0-9.44,8.32-17.09,18.57-17.09s18.57,7.65,18.57,17.09v12.59Z"/>
  <path d="M149.6,37.9c-4.66-3.2-10.24-4.81-16.74-4.81s-15.09,2.6-20.14,10.93h-1.21v-9.22h-14.62v94.08h14.62v-35.17h1.21c4.87,8.06,13.07,10.93,20.14,10.93,6.5,0,12.08-1.6,16.74-4.81,4.66-3.21,8.17-7.51,10.54-12.91,2.37-5.4,3.55-11.39,3.55-17.98s-1.18-12.6-3.55-18.05c-2.37-5.44-5.89-9.77-10.54-12.98ZM148.42,74.82c0,9.44-8.32,17.09-18.57,17.09s-18.57-7.65-18.57-17.09v-12.59c0-9.44,8.32-17.09,18.57-17.09s18.57,7.65,18.57,17.09v12.59Z"/>
  <path d="M291.9,34.8h-14.76v68.11h14.76V34.8Z"/>
  <path d="M285.41,24.85c4.6-.45,7.95-4.55,7.5-9.15-.46-4.6-4.55-7.95-9.15-7.5-4.6.45-7.96,4.55-7.5,9.15.46,4.6,4.55,7.95,9.15,7.5Z"/>
  <path d="M496.34,8.84h-15.94v94.08h15.94V8.84Z"/>
  <path d="M547.47,33.09c-9.39,0-15.91,4-20.53,12.51h-1.21v-10.81h-14.62v68.11h14.62v-37.42c0-3.78.68-7.18,2.04-10.21,1.37-3.03,3.4-5.4,6.13-7.12,2.72-1.71,6.06-2.57,10.01-2.57s6.89,1.14,9.09,3.43c2.2,2.29,3.29,5.4,3.29,9.36v44.53h14.62v-45.32c0-7.73-1.83-13.74-5.47-18.05-3.64-4.3-9.64-6.46-17.98-6.46h0Z"/>
  <path d="M602.96,14.38h-14.62v14.99c0,2.99-2.43,5.43-5.43,5.43h-5.39v12.25h10.81v45.98c0,2.72.94,5.05,2.83,6.98,1.89,1.94,4.24,2.9,7.04,2.9h18.97v-12.25h-14.23v-43.61h14.23v-12.25h-14.23V14.38h0Z"/>
  <path d="M748.77,14.38h-14.62v14.99c0,2.99-2.43,5.43-5.43,5.43h-5.39v12.25h10.81v45.98c0,2.72.94,5.05,2.83,6.98,1.89,1.94,4.24,2.9,7.04,2.9h18.97v-12.25h-14.23v-43.61h14.23v-12.25h-14.23V14.38h0Z"/>
  <path d="M671.39,72.22c0,3.78-.68,7.18-2.04,10.21-1.37,3.03-3.41,5.4-6.13,7.12-2.72,1.71-6.06,2.57-10.01,2.57s-6.9-1.17-9.09-3.49c-2.2-2.32-3.29-5.43-3.29-9.29v-44.53h-14.62v45.32c0,7.73,1.83,13.74,5.47,18.05,3.64,4.3,9.64,6.46,17.98,6.46,9.39,0,15.91-4,20.53-12.51h1.21v10.81h14.62V34.8h-14.62v37.42h0Z"/>
  <path d="M847.91,37.76c-5.09-3.12-11.25-4.67-18.45-4.67s-13.37,1.56-18.51,4.67c-5.14,3.12-9.02,7.38-11.66,12.78-2.63,5.4-3.95,11.48-3.95,18.25s1.32,12.98,3.95,18.38c2.63,5.4,6.52,9.67,11.66,12.78,5.14,3.12,11.31,4.67,18.51,4.67s13.35-1.56,18.45-4.67c5.09-3.12,8.96-7.38,11.59-12.78,2.64-5.4,3.95-11.53,3.95-18.38s-1.32-12.85-3.95-18.25c-2.63-5.4-6.5-9.66-11.59-12.78ZM848.16,75.05c0,9.49-8.36,17.2-18.69,17.2s-18.69-7.69-18.69-17.2v-12.39c0-9.49,8.36-17.2,18.69-17.2s18.69,7.69,18.69,17.2v12.39Z"/>
  <path d="M926.8,39.54c-3.64-4.3-9.64-6.46-17.98-6.46-9.39,0-15.91,4-20.53,12.51h-1.21v-10.81h-14.62v68.11h14.62v-37.42c0-3.78.68-7.18,2.04-10.21,1.37-3.03,3.4-5.4,6.13-7.12,2.72-1.71,6.06-2.57,10.01-2.57s6.89,1.14,9.09,3.43c2.2,2.29,3.29,5.4,3.29,9.36v44.53h14.62v-45.32c0-7.73-1.83-13.74-5.47-18.05h0Z"/>
  <path d="M714.75,34.8h-14.76v68.11h14.76V34.8Z"/>
  <path d="M707.44,24.85c4.62,0,8.36-3.74,8.36-8.36s-3.74-8.36-8.36-8.36-8.36,3.74-8.36,8.36,3.74,8.36,8.36,8.36Z"/>
  <path d="M786.35,34.8h-14.76v68.11h14.76V34.8Z"/>
  <path d="M779.04,24.85c4.62,0,8.36-3.74,8.36-8.36s-3.74-8.36-8.36-8.36-8.36,3.74-8.36,8.36,3.74,8.36,8.36,8.36Z"/>
</svg>